<?xml version="1.0" encoding="UTF-8"?>
<!DOCTYPE svg PUBLIC "-//W3C//DTD SVG 1.1//EN" "http://www.w3.org/Graphics/SVG/1.1/DTD/svg11.dtd">
<!-- Creator: CorelDRAW -->
<svg xmlns="http://www.w3.org/2000/svg" xml:space="preserve" width="200mm" height="200mm" version="1.1" style="shape-rendering:geometricPrecision; text-rendering:geometricPrecision; image-rendering:optimizeQuality; fill-rule:evenodd; clip-rule:evenodd"
viewBox="0 0 20000 20000"
 xmlns:xlink="http://www.w3.org/1999/xlink"
 xmlns:xodm="http://www.corel.com/coreldraw/odm/2003"
 enable-background="new 0 0 958.1 218.3">
 <defs>
  <style type="text/css">
   <![CDATA[
    .fil0 {fill:#008adf}
    .fil1 {fill:#E5310E}
   ]]>
  </style>
 </defs>
 <g id="Слой_x0020_1">
  <metadata id="CorelCorpID_0Corel-Layer"/>
  <g id="_2723813626992">
   <path class="fil0" d="M12682.17 1180.83l-9580.41 0c-1345.17,0 -1941.29,1136.54 -1941.29,1968.84 0,4755.36 0,9011.86 0,13767.2 0,762.56 582.61,1913.16 1664.05,1913.16l7791.52 0c124.84,0 194.02,-194.02 55.68,-332.36 -1982.88,-1830.49 -5850.82,-4339.77 -5795.14,-7348.42 69.16,-3881.97 5185,-7584.02 8013.67,-9746.87 27.55,-27.55 55.12,-69.16 55.12,-96.73 0,-69.74 -55.12,-124.84 -124.84,-124.84l-138.34 0 0 0 -0.02 0.02z"/>
   <path class="fil1" d="M16619.84 1180.83c-2287.68,124.84 -10703.46,4699.68 -9996.57,9122.65 471.25,3008.64 7847.21,8069.35 10301.37,8513.06 457.77,69.17 1899.67,13.49 1899.67,-1608.34 0,-2343.37 0,-8526.56 0,-12478.29 0,-831.74 0,-263.18 0,-1400.29 0,-1511.06 -360.47,-2148.79 -2024.51,-2148.79 -69.16,0 -124.84,0 -179.96,0z"/>
  </g>
 </g>
</svg>
