<?xml version="1.0" encoding="UTF-8"?>
<!DOCTYPE svg PUBLIC "-//W3C//DTD SVG 1.1//EN" "http://www.w3.org/Graphics/SVG/1.1/DTD/svg11.dtd">
<!-- Creator: CorelDRAW 2019 (64-Bit) -->
<svg xmlns="http://www.w3.org/2000/svg" xml:space="preserve" width="2244px" height="354px" version="1.1" style="shape-rendering:geometricPrecision; text-rendering:geometricPrecision; image-rendering:optimizeQuality; fill-rule:evenodd; clip-rule:evenodd"
viewBox="0 0 224400000 35432000"
 xmlns:xlink="http://www.w3.org/1999/xlink"
 xmlns:xodm="http://www.corel.com/coreldraw/odm/2003"
 enable-background="new 0 0 958.1 218.3">
 <defs>
  <style type="text/css">
   <![CDATA[
    .fil0 {fill:#003153}
    .fil1 {fill:#E5310E}
   ]]>
  </style>
 </defs>
 <g id="Слой_x0020_1">
  <metadata id="CorelCorpID_0Corel-Layer"/>
  <g id="_1546068794688">
   <g>
    <path class="fil0" d="M20848000 1957000l-17036000 0c-2392000,0 -3452000,2021000 -3452000,3501000 0,8456000 0,16025000 0,24481000 0,1356000 1036000,3402000 2959000,3402000l13855000 0c222000,0 345000,-345000 99000,-591000 -3526000,-3255000 -10404000,-7717000 -10305000,-13067000 123000,-6903000 9220000,-13486000 14250000,-17332000 49000,-49000 98000,-123000 98000,-172000 0,-124000 -98000,-222000 -222000,-222000l-246000 0 0 0zm203001000 29461000l0 -2292000c0,-543000 -197000,-987000 -567000,-1356000 -370000,-370000 -838000,-567000 -1356000,-567000l-517000 -1000c-518000,0 -987000,198000 -1381000,568000 -370000,369000 -567000,838000 -567000,1355000l0 2293000c0,543000 197000,1011000 567000,1381000 370000,370000 838000,542000 1381000,542000l517000 0c543000,0 986000,-172000 1356000,-542000 395000,-370000 567000,-838000 567000,-1381000l0 0zm-179432000 0l0 -2292000c0,-543000 -197000,-987000 -567000,-1356000 -370000,-370000 -838000,-567000 -1356000,-567000l-518000 -1000c-517000,0 -986000,198000 -1380000,568000 -370000,369000 -567000,838000 -567000,1355000l0 2293000c0,543000 197000,1011000 567000,1381000 370000,370000 838000,542000 1380000,542000l518000 0c542000,0 986000,-172000 1356000,-542000 370000,-370000 567000,-838000 567000,-1381000l0 0zm-887000 0c0,296000 -99000,543000 -321000,740000 -197000,197000 -444000,320000 -740000,320000l-517000 0c-296000,0 -543000,-98000 -740000,-320000 -197000,-197000 -320000,-444000 -320000,-740000l0 -2292000c0,-296000 98000,-543000 320000,-740000 197000,-197000 444000,-321000 740000,-321000l517000 0c296000,0 543000,99000 740000,321000 197000,197000 321000,444000 321000,739000l0 2293000 0 0zm179456000 0c0,296000 -98000,543000 -320000,740000 -197000,197000 -444000,320000 -740000,320000l-517000 0c-296000,0 -543000,-98000 -740000,-320000 -197000,-197000 -321000,-444000 -321000,-740000l0 -2292000c0,-296000 99000,-543000 321000,-740000 197000,-197000 444000,-321000 740000,-321000l517000 0c296000,0 543000,99000 740000,321000 197000,197000 320000,444000 320000,739000l0 2293000 0 0zm-174181000 -3353000l0 4833000c0,147000 50000,246000 124000,320000 98000,74000 197000,123000 320000,123000 124000,0 222000,-24000 321000,-98000 74000,-74000 123000,-173000 123000,-321000l0 -4857000 888000 0c246000,0 468000,74000 616000,247000 173000,172000 246000,370000 246000,616000l0 3970000c0,147000 50000,246000 124000,320000 98000,74000 197000,123000 320000,123000 124000,0 222000,-24000 321000,-98000 74000,-74000 123000,-173000 123000,-321000l0 -3969000c0,-493000 -172000,-912000 -518000,-1257000 -345000,-346000 -739000,-494000 -1257000,-494000l-3945000 0c-296000,0 -443000,148000 -443000,444000l0 5276000c0,148000 49000,247000 123000,321000 99000,74000 197000,123000 320000,123000 124000,0 222000,-25000 321000,-99000 74000,-74000 123000,-172000 123000,-320000l0 -4882000 1750000 0 0 0zm7052000 2392000l1775000 2736000c74000,124000 172000,173000 320000,173000 124000,0 222000,-49000 321000,-123000 98000,-74000 148000,-198000 148000,-321000 0,-74000 -25000,-172000 -99000,-296000l-1824000 -2810000 1775000 -1849000c98000,-124000 148000,-222000 148000,-345000 0,-124000 -50000,-247000 -124000,-346000 -98000,-98000 -197000,-147000 -320000,-147000 -99000,0 -197000,49000 -271000,147000l-2811000 2959000 0 -2589000c0,-148000 -49000,-246000 -123000,-320000 -99000,-74000 -197000,-99000 -296000,-99000 -123000,0 -222000,49000 -321000,123000 -74000,74000 -123000,173000 -123000,321000l0 5276000c0,148000 49000,246000 123000,321000 74000,73000 198000,123000 321000,123000 123000,0 222000,-25000 320000,-99000 74000,-74000 124000,-172000 124000,-320000l0 -1406000 937000 -1109000 0 0zm5276000 2021000l0 -4413000 1750000 0c247000,0 468000,74000 641000,247000 173000,172000 246000,370000 246000,616000l0 2638000c0,247000 -73000,469000 -246000,641000 -173000,173000 -370000,247000 -641000,247000l-1750000 0 0 24000zm0 863000l1750000 0c493000,0 912000,-172000 1257000,-493000 345000,-345000 518000,-764000 518000,-1257000l0 -2638000c0,-493000 -172000,-912000 -518000,-1257000 -345000,-346000 -739000,-494000 -1257000,-494000l-2194000 0c-296000,0 -444000,148000 -444000,444000l0 7914000c0,148000 49000,247000 123000,321000 99000,74000 198000,123000 321000,123000 123000,0 222000,-25000 320000,-99000 74000,-74000 124000,-172000 124000,-320000l0 -2244000 0 0zm10551000 -419000l0 -5276000c0,-148000 -49000,-246000 -123000,-320000 -74000,-74000 -197000,-99000 -320000,-99000 -124000,0 -222000,49000 -321000,123000 -74000,74000 -123000,173000 -123000,321000l0 5276000c0,148000 49000,246000 123000,320000 99000,74000 197000,124000 296000,124000 123000,0 222000,-25000 320000,-99000 99000,-123000 148000,-222000 148000,-370000l0 0zm-4388000 -2219000l888000 0c295000,0 517000,99000 665000,272000 148000,172000 197000,369000 197000,616000 0,246000 -73000,444000 -221000,616000 -148000,173000 -370000,271000 -641000,271000l-888000 0 0 -1775000 0 0zm0 -863000l0 -2194000c0,-148000 -49000,-246000 -123000,-320000 -99000,-74000 -198000,-99000 -296000,-99000 -123000,0 -247000,49000 -321000,123000 -74000,74000 -123000,173000 -123000,321000l0 5276000c0,296000 148000,444000 444000,444000l1307000 0c567000,0 1010000,-173000 1331000,-543000 296000,-320000 444000,-715000 444000,-1208000 0,-493000 -148000,-887000 -444000,-1208000 -321000,-370000 -764000,-542000 -1331000,-542000l-888000 0 0 -50000zm8777000 -1775000l0 4833000c0,147000 49000,246000 123000,320000 99000,74000 197000,123000 321000,123000 123000,0 222000,-24000 320000,-98000 74000,-74000 124000,-173000 124000,-321000l-1000 -4857000 888000 0c247000,0 468000,74000 616000,247000 173000,172000 247000,370000 247000,616000l0 3970000c0,147000 49000,246000 123000,320000 99000,74000 197000,123000 321000,123000 123000,0 222000,-24000 320000,-98000 74000,-74000 124000,-173000 124000,-321000l0 -3969000c0,-493000 -173000,-912000 -518000,-1257000 -345000,-346000 -740000,-494000 -1258000,-494000l-3944000 0c-296000,0 -444000,148000 -444000,444000l0 5276000c0,148000 49000,247000 123000,321000 99000,74000 198000,123000 321000,123000 123000,0 222000,-25000 320000,-99000 74000,-74000 124000,-172000 124000,-320000l-1000 -4882000 1751000 0 0 0zm9689000 3353000l0 -2292000c0,-543000 -197000,-987000 -567000,-1356000 -370000,-370000 -838000,-567000 -1356000,-567000l-518000 -1000c-518000,0 -986000,198000 -1380000,568000 -370000,369000 -567000,838000 -567000,1355000l0 2293000c0,543000 197000,1011000 567000,1381000 369000,370000 838000,542000 1380000,542000l518000 0c542000,0 986000,-172000 1356000,-542000 394000,-370000 567000,-838000 567000,-1381000l0 0zm-863000 0c0,296000 -99000,543000 -321000,740000 -197000,197000 -443000,320000 -739000,320000l-518000 0c-296000,0 -542000,-98000 -739000,-320000 -198000,-197000 -321000,-444000 -321000,-740000l0 -2292000c0,-296000 99000,-543000 321000,-740000 197000,-197000 443000,-321000 739000,-321000l518000 0c296000,0 542000,99000 739000,321000 198000,197000 321000,444000 321000,739000l0 2293000 0 0zm3501000 -1578000l0 -887000c0,-247000 74000,-444000 246000,-616000 173000,-173000 370000,-247000 617000,-247000l887000 0c247000,0 469000,74000 641000,247000 173000,172000 247000,369000 247000,616000l0 887000 -2638000 0 0 0zm0 863000l3082000 0c296000,0 443000,-148000 443000,-443000l0 -1332000c0,-493000 -172000,-912000 -517000,-1257000 -345000,-345000 -740000,-493000 -1258000,-493000l-887000 0c-493000,0 -912000,172000 -1258000,518000 -345000,345000 -517000,739000 -517000,1232000l0 2638000c0,493000 172000,912000 517000,1258000 346000,345000 765000,493000 1258000,493000l2194000 0c148000,0 247000,-50000 321000,-124000 74000,-98000 123000,-197000 123000,-295000 0,-124000 -25000,-222000 -99000,-321000 -74000,-74000 -172000,-123000 -320000,-123000l-2195000 0c-246000,0 -468000,-74000 -616000,-247000 -172000,-172000 -246000,-369000 -246000,-641000l0 -863000 -25000 0zm14077000 888000c0,246000 -73000,468000 -246000,641000 -173000,172000 -370000,246000 -641000,246000l-888000 0c-246000,0 -468000,-73000 -616000,-246000 -173000,-173000 -247000,-370000 -247000,-641000l0 -2638000c0,-246000 74000,-444000 247000,-616000 172000,-173000 370000,-247000 616000,-247000l1775000 0 0 3501000 0 0zm419000 1183000c173000,222000 420000,419000 716000,543000 49000,24000 123000,49000 172000,49000 123000,0 222000,-49000 321000,-148000 74000,-99000 123000,-197000 123000,-320000 0,-173000 -99000,-321000 -271000,-395000 -173000,-74000 -321000,-222000 -444000,-370000 -123000,-172000 -173000,-345000 -173000,-542000l0 -3945000c0,-296000 -147000,-443000 -443000,-443000l-2195000 -1000c-493000,0 -912000,173000 -1257000,518000 -345000,345000 -518000,765000 -518000,1233000l0 2638000c0,493000 173000,912000 518000,1257000 345000,345000 764000,493000 1257000,493000l888000 0c246000,0 493000,-49000 739000,-172000 222000,-74000 420000,-222000 567000,-395000l0 0zm3994000 -2317000l1776000 2736000c74000,124000 172000,173000 320000,173000 123000,0 222000,-49000 321000,-123000 98000,-74000 148000,-198000 148000,-321000 0,-74000 -25000,-172000 -99000,-296000l-1824000 -2810000 1775000 -1849000c98000,-124000 148000,-222000 148000,-345000 0,-124000 -50000,-247000 -124000,-346000 -98000,-98000 -197000,-147000 -320000,-147000 -99000,0 -198000,49000 -271000,147000l-2786000 2934000 0 -2588000c0,-148000 -50000,-247000 -124000,-321000 -98000,-74000 -197000,-99000 -296000,-99000 -123000,0 -221000,50000 -320000,124000 -74000,74000 -123000,172000 -123000,320000l0 5276000c0,148000 49000,247000 123000,321000 74000,74000 197000,123000 320000,123000 124000,0 222000,-25000 321000,-98000 74000,-74000 123000,-173000 123000,-321000l0 -1405000 912000 -1085000 0 0zm7914000 2021000l-1775000 0c-246000,0 -468000,-73000 -616000,-246000 -173000,-173000 -247000,-370000 -247000,-641000l0 -3945000c0,-147000 -49000,-246000 -123000,-320000 -99000,-74000 -197000,-99000 -296000,-99000 -123000,0 -246000,50000 -320000,124000 -74000,74000 -124000,172000 -124000,320000l0 3945000c0,493000 173000,912000 518000,1257000 345000,345000 764000,493000 1257000,493000l2638000 0 0 345000c0,148000 50000,247000 124000,345000 98000,74000 197000,124000 296000,124000 123000,0 222000,-50000 320000,-124000 74000,-74000 123000,-197000 123000,-345000l0 -789000c0,-296000 -147000,-444000 -443000,-444000l-444000 0 0 -4832000c0,-148000 -49000,-246000 -123000,-320000 -74000,-74000 -198000,-99000 -321000,-99000 -123000,0 -222000,49000 -320000,123000 -74000,74000 -124000,173000 -124000,321000l0 4807000 0 0zm7914000 444000l0 -5276000c0,-148000 -49000,-246000 -123000,-320000 -74000,-74000 -197000,-99000 -321000,-99000 -123000,0 -222000,49000 -320000,123000 -74000,74000 -123000,173000 -123000,321000l0 4832000 -1775000 0c-247000,0 -469000,-74000 -617000,-246000 -172000,-173000 -246000,-370000 -246000,-641000l0 -3945000c0,-148000 -49000,-246000 -124000,-321000 -98000,-73000 -197000,-98000 -295000,-98000 -124000,0 -247000,49000 -321000,123000 -74000,74000 -123000,173000 -123000,321000l0 3944000c0,493000 172000,913000 518000,1258000 345000,345000 764000,493000 1257000,493000l2194000 0c271000,-50000 419000,-173000 419000,-469000l0 0zm6139000 -1504000l0 -2292000c0,-543000 -197000,-987000 -567000,-1356000 -370000,-370000 -838000,-567000 -1356000,-567000l-518000 -1000c-517000,0 -986000,198000 -1380000,568000 -370000,369000 -567000,838000 -567000,1355000l0 2293000c0,543000 197000,1011000 567000,1381000 369000,370000 838000,542000 1380000,542000l518000 0c542000,0 986000,-172000 1356000,-542000 395000,-370000 567000,-838000 567000,-1381000l0 0zm-863000 0c0,296000 -98000,543000 -320000,740000 -198000,197000 -444000,320000 -740000,320000l-518000 0c-296000,0 -542000,-98000 -739000,-320000 -197000,-197000 -321000,-444000 -321000,-740000l0 -2292000c0,-296000 99000,-543000 321000,-740000 197000,-197000 443000,-321000 739000,-321000l518000 0c296000,0 542000,99000 740000,321000 197000,197000 320000,444000 320000,739000l0 2293000 0 0zm6164000 -1578000l-2638000 0 0 -2194000c0,-148000 -49000,-246000 -124000,-320000 -98000,-74000 -197000,-99000 -295000,-99000 -124000,0 -247000,49000 -321000,123000 -74000,74000 -123000,173000 -123000,321000l0 5276000c0,148000 49000,246000 123000,321000 99000,73000 197000,123000 321000,123000 123000,0 222000,-25000 320000,-99000 74000,-74000 123000,-172000 123000,-320000l0 -2194000 2638000 -1000 0 2194000c0,148000 50000,247000 124000,321000 74000,74000 197000,123000 320000,123000 124000,0 222000,-24000 321000,-98000 74000,-74000 123000,-173000 123000,-321000l0 -5276000c0,-148000 -49000,-246000 -123000,-320000 -74000,-74000 -197000,-99000 -321000,-99000 -123000,0 -222000,49000 -320000,123000 -74000,74000 -124000,173000 -124000,321000l0 2095000 -24000 0zm3501000 0l0 -887000c0,-247000 74000,-444000 246000,-616000 173000,-173000 370000,-247000 617000,-247000l887000 0c247000,0 468000,74000 641000,247000 173000,172000 247000,369000 247000,616000l0 887000 -2638000 0 0 0zm0 863000l3081000 0c296000,0 444000,-148000 444000,-443000l0 -1332000c0,-493000 -172000,-912000 -518000,-1257000 -345000,-345000 -739000,-493000 -1257000,-493000l-887000 0c-494000,0 -913000,172000 -1258000,518000 -345000,345000 -518000,739000 -518000,1232000l0 2638000c0,493000 173000,912000 518000,1258000 345000,345000 764000,493000 1258000,493000l2194000 0c148000,0 246000,-50000 320000,-124000 74000,-98000 124000,-197000 124000,-295000 0,-124000 -25000,-222000 -99000,-321000 -74000,-74000 -173000,-123000 -321000,-123000l-2194000 0c-246000,0 -468000,-74000 -616000,-247000 -173000,-172000 -247000,-369000 -247000,-641000l0 -863000 -24000 0zm6163000 1775000l0 -4413000 1751000 0c246000,0 468000,74000 640000,247000 173000,172000 247000,370000 247000,616000l0 2638000c0,247000 -74000,469000 -247000,641000 -172000,173000 -369000,247000 -640000,247000l-1751000 0 0 24000zm0 863000l1751000 0c493000,0 912000,-172000 1257000,-493000 345000,-345000 518000,-764000 518000,-1257000l0 -2638000c0,-493000 -173000,-912000 -518000,-1257000 -345000,-346000 -740000,-494000 -1257000,-494000l-2195000 0c-295000,0 -443000,148000 -443000,444000l0 7914000c0,148000 49000,247000 123000,321000 99000,74000 197000,123000 320000,123000 124000,0 222000,-25000 321000,-99000 74000,-74000 123000,-172000 123000,-320000l0 -2244000 0 0zm8802000 -3501000l-2638000 0 0 -2194000c0,-148000 -50000,-246000 -124000,-320000 -98000,-74000 -197000,-99000 -296000,-99000 -123000,0 -246000,49000 -320000,123000 -74000,74000 -123000,173000 -123000,321000l0 5276000c0,148000 49000,246000 123000,321000 99000,73000 197000,123000 320000,123000 124000,0 222000,-25000 321000,-99000 74000,-74000 123000,-172000 123000,-320000l0 -2194000 2638000 -1000 0 2194000c0,148000 50000,247000 124000,321000 74000,74000 197000,123000 320000,123000 123000,0 222000,-24000 321000,-98000 74000,-74000 123000,-173000 123000,-321000l0 -5276000c0,-148000 -49000,-246000 -123000,-320000 -74000,-74000 -198000,-99000 -321000,-99000 -123000,0 -222000,49000 -320000,123000 -74000,74000 -124000,173000 -124000,321000l0 2095000 -24000 0zm7026000 1578000l0 -2292000c0,-543000 -197000,-987000 -567000,-1356000 -370000,-370000 -838000,-567000 -1356000,-567000l-518000 -1000c-517000,0 -986000,198000 -1380000,568000 -370000,369000 -567000,838000 -567000,1355000l0 2293000c0,543000 197000,1011000 567000,1381000 369000,370000 838000,542000 1380000,542000l518000 0c542000,0 986000,-172000 1356000,-542000 370000,-370000 567000,-838000 567000,-1381000l0 0zm-887000 0c0,296000 -99000,543000 -321000,740000 -197000,197000 -444000,320000 -740000,320000l-517000 0c-296000,0 -543000,-98000 -740000,-320000 -197000,-197000 -320000,-444000 -320000,-740000l0 -2292000c0,-296000 98000,-543000 320000,-740000 197000,-197000 444000,-321000 740000,-321000l517000 0c296000,0 543000,99000 740000,321000 197000,197000 321000,444000 321000,739000l0 2293000 0 0zm3525000 -1578000l0 -887000c0,-247000 74000,-444000 246000,-616000 173000,-173000 370000,-247000 617000,-247000l887000 0c247000,0 469000,74000 641000,247000 173000,172000 247000,369000 247000,616000l0 887000 -2638000 0 0 0zm0 863000l3082000 0c296000,0 444000,-148000 444000,-443000l0 -1332000c0,-493000 -173000,-912000 -518000,-1257000 -345000,-345000 -740000,-493000 -1258000,-493000l-887000 0c-493000,0 -912000,172000 -1257000,518000 -345000,345000 -518000,739000 -518000,1232000l0 2638000c0,493000 172000,912000 518000,1258000 345000,345000 764000,493000 1257000,493000l2194000 0c148000,0 247000,-50000 321000,-124000 74000,-98000 123000,-197000 123000,-295000 0,-124000 -25000,-222000 -99000,-321000 -74000,-74000 -172000,-123000 -320000,-123000l-2194000 0c-247000,0 -469000,-74000 -617000,-247000 -172000,-172000 -246000,-369000 -246000,-641000l0 -863000 -25000 0zm14940000 715000l0 -2292000c0,-543000 -197000,-987000 -567000,-1356000 -369000,-370000 -838000,-567000 -1356000,-567000l-517000 -1000c-518000,0 -987000,198000 -1381000,568000 -370000,369000 -567000,838000 -567000,1355000l0 2293000c0,543000 197000,1011000 567000,1381000 370000,370000 838000,542000 1381000,542000l517000 0c543000,0 987000,-172000 1356000,-542000 395000,-370000 567000,-838000 567000,-1381000l0 0zm-862000 0c0,296000 -99000,543000 -321000,740000 -197000,197000 -444000,320000 -740000,320000l-517000 0c-296000,0 -543000,-98000 -740000,-320000 -197000,-197000 -320000,-444000 -320000,-740000l0 -2292000c0,-296000 98000,-543000 320000,-740000 197000,-197000 444000,-321000 740000,-321000l517000 0c296000,0 543000,99000 740000,321000 197000,197000 321000,444000 321000,739000l0 2293000 0 0zm6138000 173000c0,246000 -74000,468000 -246000,641000 -173000,172000 -370000,246000 -641000,246000l-888000 0c-246000,0 -468000,-73000 -616000,-246000 -173000,-173000 -247000,-370000 -247000,-641000l0 -2638000c0,-246000 74000,-444000 247000,-616000 172000,-173000 370000,-247000 616000,-247000l888000 0c246000,0 468000,74000 641000,247000 172000,172000 246000,369000 246000,616000l0 2638000 0 0zm-1405000 -4389000l-345000 0c-493000,0 -912000,173000 -1257000,518000 -345000,345000 -518000,765000 -518000,1233000l0 2638000c0,493000 172000,912000 518000,1257000 345000,345000 764000,493000 1257000,493000l887000 0c493000,0 913000,-172000 1258000,-493000 345000,-345000 518000,-764000 518000,-1257000l0 -2638000c0,-444000 -148000,-814000 -420000,-1134000l-98000 -148000 -2342000 -2219000 2416000 0c148000,0 246000,-49000 320000,-123000 74000,-99000 124000,-197000 124000,-296000 0,-123000 -25000,-247000 -99000,-321000 -74000,-74000 -173000,-123000 -321000,-123000l-3525000 0c-173000,0 -271000,49000 -370000,123000 -74000,74000 -123000,173000 -123000,272000 0,148000 49000,246000 172000,369000l1948000 1849000 0 0zm7569000 5276000l0 -4832000c0,-148000 -49000,-246000 -123000,-320000 -99000,-74000 -198000,-99000 -296000,-99000 -124000,0 -247000,49000 -321000,123000 -74000,74000 -123000,173000 -123000,321000l0 4832000 -888000 0c-246000,0 -468000,-74000 -616000,-246000 -173000,-173000 -246000,-370000 -246000,-641000l0 -3945000c0,-148000 -50000,-246000 -124000,-321000 -98000,-73000 -197000,-98000 -296000,-98000 -123000,0 -246000,49000 -320000,123000 -74000,74000 -123000,173000 -123000,321000l0 3944000c0,493000 172000,913000 517000,1258000 345000,345000 765000,493000 1258000,493000l4413000 0 0 443000c0,148000 49000,247000 123000,321000 74000,74000 197000,98000 321000,98000 123000,0 222000,-24000 320000,-98000 74000,-74000 123000,-173000 123000,-321000l0 -887000c0,-296000 -147000,-444000 -443000,-444000l-444000 0 0 -4832000c0,-148000 -49000,-247000 -124000,-321000 -98000,-74000 -197000,-98000 -295000,-98000 -124000,0 -247000,49000 -321000,123000 -74000,74000 -123000,173000 -123000,321000l0 4832000 -1849000 0 0 -50000zm6163000 -2638000l0 -887000c0,-247000 74000,-444000 247000,-616000 172000,-173000 370000,-247000 616000,-247000l888000 0c246000,0 468000,74000 641000,247000 172000,172000 246000,369000 246000,616000l0 887000 -2638000 0 0 0zm0 863000l3082000 0c296000,0 444000,-148000 444000,-443000l0 -1332000c0,-493000 -173000,-912000 -518000,-1257000 -345000,-345000 -740000,-493000 -1257000,-493000l-888000 0c-493000,0 -912000,172000 -1257000,518000 -345000,345000 -518000,739000 -518000,1232000l0 2638000c0,493000 173000,912000 518000,1258000 345000,345000 764000,493000 1257000,493000l2194000 0c148000,0 247000,-50000 321000,-124000 74000,-98000 123000,-197000 123000,-295000 0,-124000 -24000,-222000 -98000,-321000 -74000,-74000 -173000,-123000 -321000,-123000l-2194000 0c-247000,0 -468000,-74000 -616000,-247000 -173000,-172000 -247000,-369000 -247000,-641000l0 -863000 -25000 0zm8358000 2638000c148000,0 247000,-49000 321000,-123000 74000,-99000 123000,-197000 123000,-296000 0,-123000 -25000,-222000 -99000,-320000 -74000,-74000 -172000,-124000 -320000,-124000l-1332000 0c-246000,0 -468000,-73000 -616000,-246000 -173000,-173000 -246000,-370000 -246000,-641000l0 -2638000c0,-246000 73000,-444000 246000,-616000 173000,-173000 370000,-247000 616000,-247000l1332000 0c148000,0 246000,-49000 320000,-123000 74000,-99000 124000,-197000 124000,-296000 0,-123000 -25000,-222000 -99000,-321000 -74000,-74000 -173000,-123000 -321000,-123000l-1331000 0c-493000,0 -912000,173000 -1257000,518000 -345000,345000 -518000,764000 -518000,1233000l0 2638000c0,493000 173000,912000 518000,1257000 345000,345000 764000,493000 1257000,493000l1282000 0 0 -25000zm4832000 -5276000l0 4833000c0,147000 50000,246000 124000,320000 98000,74000 197000,123000 320000,123000 123000,0 222000,-24000 321000,-98000 74000,-74000 123000,-173000 123000,-321000l0 -4857000 887000 0c247000,0 469000,74000 617000,247000 172000,172000 246000,370000 246000,616000l0 3970000c0,147000 50000,246000 124000,320000 98000,74000 197000,123000 320000,123000 123000,0 222000,-24000 321000,-98000 74000,-74000 123000,-173000 123000,-321000l0 -3969000c0,-493000 -173000,-912000 -518000,-1257000 -345000,-346000 -739000,-494000 -1257000,-494000l-3945000 0c-296000,0 -444000,148000 -444000,444000l0 5276000c0,148000 50000,247000 124000,321000 98000,74000 197000,123000 320000,123000 124000,0 222000,-25000 321000,-99000 74000,-74000 123000,-172000 123000,-320000l0 -4882000 1750000 0 0 0zm8802000 3526000c0,246000 -74000,468000 -247000,641000 -172000,172000 -369000,246000 -641000,246000l-887000 0c-247000,0 -469000,-73000 -617000,-246000 -172000,-173000 -246000,-370000 -246000,-641000l0 -2638000c0,-246000 74000,-444000 246000,-616000 173000,-173000 370000,-247000 617000,-247000l887000 0c247000,0 469000,74000 641000,247000 173000,172000 247000,369000 247000,616000l0 2638000 0 0zm-2638000 -4093000l0 -1356000c0,-222000 74000,-394000 197000,-517000 148000,-124000 296000,-173000 493000,-173000 197000,0 345000,49000 493000,173000 148000,123000 222000,295000 222000,517000 0,148000 -49000,296000 -172000,420000 -50000,73000 -173000,172000 -370000,320000 -49000,49000 -123000,99000 -222000,173000 -74000,74000 -173000,123000 -296000,222000 -49000,24000 -99000,73000 -148000,98000 -49000,25000 -123000,74000 -197000,123000l0 0zm1750000 -271000c198000,-123000 321000,-271000 395000,-444000 74000,-172000 123000,-394000 123000,-641000 0,-493000 -173000,-887000 -493000,-1183000 -296000,-271000 -641000,-394000 -1085000,-394000 -444000,0 -813000,123000 -1085000,394000 -345000,296000 -493000,690000 -493000,1208000l0 5449000c0,493000 173000,912000 518000,1257000 345000,345000 764000,493000 1257000,493000l888000 0c493000,0 912000,-173000 1257000,-493000 345000,-345000 518000,-764000 518000,-1257000l0 -2638000c0,-518000 -148000,-913000 -444000,-1233000 -345000,-345000 -789000,-518000 -1356000,-518000l0 0zm-38090000 -25270000l0 16986000 2662000 0 0 -16986000 -2662000 0 0 0zm9738000 0l-5498000 6213000c-838000,961000 -838000,2638000 0,3722000l5498000 7051000 3402000 0 -6952000 -8900000 6952000 -8086000 -3402000 0 0 0zm-100539000 5325000c0,-2416000 1356000,-3994000 3550000,-3994000l4290000 0 0 -1307000 -4241000 0c-3081000,0 -4930000,1874000 -4930000,5326000l0 11661000 1306000 0 25000 -11686000 0 0zm36759000 -74000l0 -1578000c0,-2810000 -1652000,-3673000 -4240000,-3673000l-5967000 0 0 1306000 5967000 0c1750000,0 2909000,247000 2909000,2293000l0 1504000c0,1652000 -962000,2342000 -2762000,2416000l-3550000 0 0 1332000 3550000 0c1652000,0 2934000,542000 2762000,2440000l0 1677000c0,1874000 -1085000,2712000 -2909000,2712000l-5967000 0 0 1331000 5967000 0c2490000,0 4240000,-1701000 4240000,-4166000l0 -1677000c0,-1603000 -616000,-2663000 -1874000,-3082000 1258000,-296000 1874000,-1159000 1874000,-2835000l0 0zm18367000 -5251000l7224000 0 0 2662000 -6336000 0c-1356000,0 -2490000,1134000 -2490000,2490000l0 6657000c0,1356000 1109000,2490000 2490000,2490000l6336000 0 4290000 -11809000c493000,-1332000 1282000,-2490000 2662000,-2490000 1381000,0 2170000,1158000 2663000,2490000l5276000 14472000 -2835000 0 -5104000 -13979000 -5103000 14003000 -9073000 0c-2342000,0 -4265000,-1923000 -4265000,-4265000l0 -8432000c0,-2366000 1923000,-4289000 4265000,-4289000l0 0zm6287000 6854000l-6040000 0 0 2342000 6040000 0 0 -2342000 0 0zm-81974000 10132000l1232000 0 0 -16986000 -1232000 0 0 16986000 0 0zm-1209000 -3377000l0 -2515000c0,-2663000 -1454000,-4240000 -4166000,-4240000l-5818000 0 0 1232000 5867000 0c1948000,0 2860000,1110000 2860000,3008000l0 2317000c0,1529000 -1405000,2367000 -2860000,2367000l-7100000 0 0 -15778000 -1233000 0 0 16986000 8333000 0c2022000,0 4117000,-1208000 4117000,-3377000l0 0zm17973000 -10232000l0 1677000c0,2663000 -1454000,4240000 -4166000,4240000l-5819000 0 0 -1232000 5868000 0c1948000,0 2860000,-1110000 2860000,-3008000l0 -1479000c0,-1529000 -1405000,-2367000 -2860000,-2367000l-7100000 0 0 15778000 -1233000 0 0 -16986000 8333000 0c2022000,0 4117000,1208000 4117000,3377000l0 0zm26454000 13609000l1233000 0 0 -16986000 -1233000 0 0 16986000 0 0zm-1233000 -3377000l0 -2515000c0,-2663000 -1454000,-4240000 -4166000,-4240000l-5819000 0 0 1232000 5868000 0c1948000,0 2860000,1110000 2860000,3008000l0 2317000c0,1529000 -1405000,2367000 -2860000,2367000l-7051000 0 0 -15778000 -1233000 0 0 16986000 8333000 0c1997000,0 4068000,-1208000 4068000,-3377000l0 0zm60082000 -13609000c-2342000,0 -4265000,1923000 -4265000,4265000l0 8432000c0,2342000 1923000,4265000 4265000,4265000l7224000 0 0 -2663000 -6336000 0c-1356000,0 -2490000,-1109000 -2490000,-2490000l0 -6657000c0,-1356000 1109000,-2490000 2490000,-2490000l6336000 0 0 -2662000 -7224000 0 0 0zm6287000 6854000l0 2342000 -6040000 0 0 -2342000 6040000 0 0 0zm36488000 -4931000c-370000,-1184000 -1183000,-1923000 -2318000,-1923000 -1775000,0 -2810000,1109000 -2810000,2835000l0 14127000 2663000 0 0 -14102000 3772000 12031000c468000,1257000 863000,2095000 2366000,2095000 1504000,0 1899000,-838000 2367000,-2095000l3772000 -12031000 0 14126000 2663000 0 0 -14126000c0,-1726000 -1011000,-2836000 -2811000,-2836000 -1134000,0 -1947000,740000 -2317000,1923000 -370000,1184000 -3698000,11440000 -3698000,11440000 0,0 -3279000,-10281000 -3649000,-11464000l0 0zm-15927000 -1923000l4142000 0c2342000,0 4265000,1923000 4265000,4265000l0 8432000c0,2342000 -1923000,4265000 -4265000,4265000l-4142000 0c-2342000,0 -4265000,-1923000 -4265000,-4265000l0 -8408000c-24000,-2366000 1899000,-4289000 4265000,-4289000l0 0zm863000 2687000c-1356000,0 -2490000,1134000 -2490000,2490000l0 6657000c0,1356000 1110000,2490000 2490000,2490000l2416000 0c1356000,0 2490000,-1110000 2490000,-2490000l0 -6657000c0,-1356000 -1109000,-2490000 -2490000,-2490000l-2416000 0 0 0zm-63977000 0l0 14299000 -2687000 0 0 -14299000 -3748000 0 0 -2687000 10158000 0 0 2662000 -3723000 25000 0 0zm-82862000 -2687000l-8185000 7322000 0 -7322000 -1233000 0 0 16986000 1233000 0 0 -8135000 8283000 8135000 1751000 0 -9048000 -8900000 9048000 -8062000 -1849000 0 0 -24000z"/>
    <path class="fil1" d="M27850000 1957000c-4068000,222000 -19033000,8357000 -17776000,16222000 838000,5350000 13954000,14349000 18318000,15138000 814000,123000 3378000,24000 3378000,-2860000 0,-4167000 0,-15162000 0,-22189000 0,-1479000 0,-468000 0,-2490000 0,-2687000 -641000,-3821000 -3600000,-3821000 -123000,0 -222000,0 -320000,0z"/>
   </g>
  </g>
 </g>
</svg>
